<svg width="38" height="34" viewBox="0 0 38 34" fill="none" xmlns="http://www.w3.org/2000/svg">
<path d="M12.1854 29.5818C12.0779 29.6971 11.9778 29.8131 11.885 29.9298C11.8002 30.0399 11.7147 30.1574 11.6285 30.2822C11.5934 30.338 11.5551 30.3897 11.5134 30.4374C11.4717 30.4852 11.4293 30.5402 11.3862 30.6026C11.2149 30.6895 11.0542 30.7811 10.9042 30.8774C10.7622 30.9672 10.6389 31.055 10.5343 31.141L10.3135 31.2415C10.1905 31.2887 10.0982 31.3241 10.0367 31.3477C9.9686 31.3632 9.90708 31.3868 9.85219 31.4184C9.79872 31.4354 9.73649 31.4663 9.66549 31.5112C9.60255 31.5494 9.50813 31.6068 9.38223 31.6833C9.29172 31.8521 9.18208 31.9894 9.05332 32.0952C8.9648 32.1679 8.86233 32.2319 8.74592 32.2871C8.62289 32.3343 8.48002 32.3574 8.31731 32.3562C8.14799 32.3471 7.95954 32.3065 7.75197 32.2344C7.53778 32.1542 7.3026 32.0239 7.04641 31.8434C6.91844 31.6385 6.81433 31.4544 6.73408 31.2911C6.65384 31.1279 6.59674 30.9928 6.56279 30.8858L6.57008 30.6978C6.66864 30.5224 6.81046 30.3587 6.99556 30.2066C7.17261 30.0611 7.36878 29.947 7.58408 29.8645C7.79937 29.7819 8.01798 29.7034 8.23989 29.6289C8.33877 29.6015 8.41092 29.5827 8.45634 29.5723C8.50176 29.562 8.53582 29.5542 8.55853 29.549C8.58124 29.5438 8.60466 29.5313 8.62881 29.5115C8.661 29.485 8.71331 29.442 8.78574 29.3825C8.82597 29.3494 8.86219 29.3197 8.89438 29.2932C8.928 29.2521 8.96163 29.211 8.99525 29.1699L9.15003 29.0629C9.23282 29.0488 9.31445 29.0087 9.39493 28.9425C9.45126 28.8962 9.50098 28.8419 9.54408 28.7795C9.59524 28.7105 9.64639 28.6415 9.69754 28.5725C9.74208 28.4954 9.78519 28.433 9.82686 28.3853C9.86853 28.3376 9.90287 28.2891 9.92988 28.24L9.96131 28.0321C10.0153 27.9338 10.0459 27.848 10.0531 27.7747C10.0683 27.6947 10.0722 27.6174 10.0647 27.5427C10.0506 27.4599 10.0324 27.3804 10.0103 27.3042C9.99618 27.2214 9.98682 27.128 9.98219 27.0239C9.98275 26.9426 9.97928 26.8645 9.97178 26.7898C9.97234 26.7084 9.9762 26.6311 9.98337 26.5578L9.88416 26.4371C9.76821 26.0335 9.63286 25.6391 9.4781 25.2539C9.32335 24.8688 9.15652 24.4935 8.97762 24.1282C8.79873 23.7629 8.61437 23.4155 8.42456 23.0861C8.24279 22.7501 8.07613 22.4488 7.92457 22.1824C7.90042 22.2022 7.87628 22.2221 7.85214 22.2419C7.82138 22.2537 7.79795 22.2662 7.78186 22.2795C7.54043 22.4779 7.34657 22.6439 7.20028 22.7776C7.05399 22.9114 6.92308 23.0392 6.80754 23.1611C6.69201 23.283 6.57504 23.4196 6.45664 23.5708C6.33967 23.7074 6.18908 23.8851 6.00487 24.1039L5.82941 24.3088C5.73603 24.5069 5.64337 24.6976 5.55142 24.8811C5.46091 25.0498 5.3392 25.197 5.1863 25.3227C4.94487 25.5211 4.65627 25.5965 4.32049 25.5489C4.0428 25.5883 3.8059 25.5134 3.6098 25.324C3.51004 25.2846 3.43772 25.2294 3.39286 25.1584C3.26808 25.0722 3.16528 24.9882 3.08448 24.9062C3.00512 24.8097 2.93237 24.7211 2.86623 24.6407L2.70965 24.4255L2.89072 24.2767C2.89932 24.1888 2.90175 24.1261 2.898 24.0887C2.9023 24.0447 2.89525 24.0033 2.87684 23.9645L2.81385 23.8141L2.92464 23.7028C3.0738 23.5397 3.22367 23.3694 3.37427 23.1917C3.52486 23.014 3.67617 22.829 3.82819 22.6366C3.98683 22.4523 4.12061 22.2952 4.22953 22.1652C4.3465 22.0286 4.46203 21.9067 4.57613 21.7994C4.68362 21.6841 4.80174 21.5736 4.93051 21.4678C5.05265 21.3539 5.19823 21.2275 5.36723 21.0886C5.43161 21.0357 5.49125 20.9934 5.54615 20.9618C5.60248 20.9155 5.65881 20.8692 5.71515 20.8229C5.71427 20.7562 5.72662 20.7056 5.75219 20.6711C5.77777 20.6366 5.79861 20.6127 5.8147 20.5995C5.87765 20.5613 5.9245 20.5362 5.95526 20.5245C5.99406 20.506 6.02482 20.4943 6.04753 20.4891C6.28146 20.2159 6.50779 19.9827 6.72651 19.7895C6.94666 19.5816 7.14929 19.4016 7.33438 19.2495C7.42291 19.1767 7.51143 19.104 7.59995 19.0312C7.68848 18.9585 7.77628 18.893 7.86337 18.8349L8.32209 18.458L8.64801 18.1901C8.68164 18.149 8.71455 18.1152 8.74674 18.0887C8.78697 18.0557 8.82721 18.0226 8.86745 17.9895C8.94793 17.9234 9.00828 17.8738 9.04852 17.8407C9.09681 17.801 9.14035 17.772 9.17916 17.7536C9.21135 17.7271 9.24684 17.7047 9.28565 17.6863C9.31784 17.6598 9.36541 17.6275 9.42835 17.5892C9.58501 17.5009 9.72628 17.4185 9.85217 17.342C9.97807 17.2655 10.0973 17.181 10.21 17.0884L10.4294 16.8878L10.5847 17.0029L10.8223 17.0706C10.8862 17.099 10.9547 17.1168 11.028 17.124C11.1013 17.1312 11.1787 17.135 11.26 17.1356C11.4293 17.1447 11.6145 17.1813 11.8154 17.2454C12.0178 17.2948 12.2095 17.4541 12.3904 17.7235L12.4008 17.9576C12.3818 18.0002 12.3661 18.0467 12.3538 18.0973C12.3495 18.1413 12.3445 18.1926 12.3387 18.2513L12.3073 18.4591C12.2093 18.5532 12.1274 18.634 12.0616 18.7015C11.9892 18.7611 11.9087 18.8272 11.8202 18.8999C11.6753 19.019 11.5231 19.1373 11.3636 19.2549C11.2121 19.3659 11.0526 19.4836 10.885 19.6078C10.7899 19.6725 10.7182 19.7247 10.6699 19.7644C10.6216 19.804 10.5774 19.8404 10.5371 19.8735C10.4969 19.9066 10.4519 19.9503 10.4022 20.0046C10.3539 20.0443 10.2895 20.0972 10.209 20.1633C10.1286 20.2295 10.0682 20.2791 10.028 20.3122C9.99578 20.3386 9.9508 20.3823 9.89304 20.4433C10.0886 20.714 10.2416 20.9658 10.352 21.1986C10.4639 21.4168 10.5736 21.657 10.6812 21.9191C11.1765 22.8334 11.5991 23.7333 11.9492 24.6186C12.3073 25.4973 12.5811 26.3308 12.7704 27.119C12.7378 27.6042 12.694 28.0514 12.6392 28.4605C12.5778 28.8615 12.4386 29.2254 12.2216 29.552L12.1854 29.5818ZM15.4413 25.3486L15.499 25.099L15.3028 24.8355C15.1005 24.1793 14.9188 23.5398 14.7577 22.9172C14.6046 22.288 14.4496 21.6401 14.2928 20.9734C14.2396 20.761 14.1863 20.5486 14.1331 20.3362C14.0879 20.1171 14.0354 19.8974 13.9755 19.6769C13.941 19.6513 13.9106 19.6224 13.8841 19.5902C13.851 19.55 13.8227 19.4991 13.7991 19.4376C13.7795 19.1841 13.749 18.9664 13.7075 18.7848C13.6741 18.5965 13.6334 18.4075 13.5854 18.2178C13.5255 17.9973 13.4697 17.7735 13.4179 17.5464C13.3741 17.3127 13.3538 17.0665 13.3569 16.8078L13.3422 16.6176L13.4849 16.5206C13.5039 16.478 13.5261 16.4395 13.5517 16.405C13.5787 16.3558 13.6204 16.3081 13.6767 16.2618L13.9238 16.1194C14.0901 15.7804 14.1813 15.4156 14.1973 15.0249C14.2148 14.6196 14.1958 14.17 14.1405 13.6761L14.1167 13.3519L14.4091 13.3139C14.4691 13.3049 14.5534 13.2762 14.6617 13.2276C14.7701 13.1789 14.8858 13.1311 15.0088 13.0839C15.2109 12.9852 15.4155 12.8979 15.6228 12.822C15.8234 12.738 16.0044 12.7039 16.1657 12.7196L16.3153 12.7787C16.4041 12.854 16.4824 12.9245 16.5499 12.9904C16.6256 13.0496 16.7012 13.1088 16.7768 13.168C16.9479 13.3105 17.1149 13.4564 17.278 13.6055C17.4344 13.7466 17.5993 13.9145 17.7727 14.109C17.9452 14.2369 18.117 14.3721 18.2881 14.5147C18.4606 14.6426 18.6291 14.7738 18.7936 14.9083C19.0256 15.1086 19.255 15.2975 19.4819 15.4751C19.7021 15.6447 19.9319 15.793 20.1711 15.92C20.2516 15.8538 20.3031 15.8182 20.3259 15.813C20.3894 15.6934 20.4822 15.5766 20.6043 15.4628L20.7513 15.3217L20.9187 15.4269C20.9546 15.4378 20.9946 15.4454 21.0386 15.4497C21.0825 15.454 21.1306 15.455 21.1826 15.4527C21.318 15.3549 21.4337 15.307 21.5297 15.309C21.6271 15.2964 21.7125 15.2936 21.7858 15.3008C21.8151 15.3036 21.8518 15.3072 21.8958 15.3115C21.9331 15.3078 21.9632 15.3033 21.9859 15.2981L22.2726 15.2041L22.3404 15.5326C22.3908 15.7744 22.3895 16.0518 22.3367 16.3649C22.292 16.6713 22.1999 16.9695 22.0605 17.2593C22.1229 17.3024 22.174 17.3481 22.2136 17.3963C22.2614 17.438 22.3197 17.4844 22.3888 17.5356C22.5532 17.6701 22.7163 17.8192 22.8779 17.9831C23.0409 18.1322 23.1864 18.3093 23.3144 18.5142C23.4059 18.7896 23.4647 19.0581 23.4909 19.3197C23.5186 19.5666 23.5122 19.8213 23.4717 20.0838C23.4327 20.3316 23.357 20.5758 23.2446 20.8164C23.1257 21.049 22.9689 21.252 22.7743 21.4254C22.6418 21.4939 22.5342 21.5352 22.4514 21.5493C22.3767 21.5568 22.3059 21.5609 22.2393 21.5618C22.1352 21.5664 22.0564 21.5772 22.003 21.5942L21.7865 21.6508L21.686 21.43C21.6572 21.3458 21.6069 21.2928 21.535 21.2709C21.4712 21.2425 21.3619 21.2244 21.2073 21.2167C21.1553 21.219 21.1072 21.218 21.0633 21.2137C21.0127 21.2013 20.958 21.1923 20.8994 21.1866L20.4298 21.1073L20.7389 20.6713C20.9274 20.4085 21.0222 20.1958 21.0233 20.0331C21.0178 19.8623 20.9012 19.6548 20.6734 19.4105C20.4392 19.5356 20.2709 19.6671 20.1686 19.8052C20.0597 19.9351 19.9541 20.0691 19.8517 20.2071C19.7063 20.4075 19.5616 20.6006 19.4177 20.7863C19.2671 20.964 19.0872 21.1389 18.8779 21.3108C18.7411 21.4233 18.5863 21.5302 18.4136 21.6318L18.2709 21.7288L18.1255 21.6258C18.1123 21.6097 18.087 21.6035 18.0496 21.6073C18.0137 21.5963 17.9811 21.5895 17.9517 21.5866C17.8718 21.5714 17.7706 21.5467 17.6482 21.5125C17.5257 21.4783 17.4309 21.3876 17.3639 21.2405C17.2348 21.1982 17.1266 21.1322 17.0392 21.0422C17.0599 21.133 17.0846 21.2206 17.1134 21.3048C17.1436 21.3743 17.1738 21.4439 17.204 21.5135L17.2847 21.7101L17.1476 21.8632C17.1447 21.8925 17.1485 21.9299 17.1589 21.9753C17.1773 22.0141 17.1971 22.0383 17.2184 22.0477L17.3758 22.1408L17.3444 22.3487C17.3481 22.3861 17.3445 22.4227 17.3336 22.4586C17.3227 22.4946 17.3158 22.5272 17.3129 22.5565C17.3696 22.6583 17.4149 22.7626 17.4488 22.8696C17.4908 22.9699 17.5288 23.0735 17.5628 23.1804C17.6283 23.3423 17.6906 23.5001 17.7496 23.6539C17.8166 23.801 17.8997 23.935 17.9989 24.0557L18.0796 24.2523C18.0923 24.3497 18.0797 24.441 18.0417 24.5261C18.0119 24.6046 17.9787 24.6791 17.9422 24.7495C17.8882 24.8478 17.8583 24.9263 17.8525 24.985L17.9453 25.1717L17.7841 25.3446C17.6993 25.4547 17.6361 25.5337 17.5944 25.5814C17.5608 25.6225 17.5158 25.6662 17.4595 25.7125L17.2926 25.8294C17.1167 25.8122 16.9767 25.8059 16.8726 25.8105C16.77 25.8005 16.6619 25.8084 16.5483 25.8343L16.3966 25.7973C16.3115 25.7594 16.245 25.7196 16.1973 25.6779C16.143 25.6282 16.0846 25.5818 16.0222 25.5387C15.9201 25.4473 15.8365 25.3947 15.7712 25.3809L15.4413 25.3486ZM16.7127 19.0453C16.7323 19.2989 16.7626 19.5572 16.8034 19.8202C16.8532 19.7659 16.9022 19.7189 16.9504 19.6792C17.0068 19.6329 17.0598 19.5825 17.1095 19.5282C17.378 19.2806 17.623 19.0456 17.8446 18.823C18.0661 18.6004 18.2946 18.3453 18.53 18.0574C18.2209 17.8126 17.9005 17.5703 17.5687 17.3307C17.2383 17.0763 16.8999 16.8286 16.5534 16.5875L16.5923 16.7578C16.5696 17.1404 16.5683 17.5326 16.5882 17.9342C16.6082 18.3357 16.6504 18.6988 16.7148 19.0234L16.7127 19.0453ZM26.6023 18.3806C26.5218 18.4467 26.3872 18.5372 26.1983 18.6519C25.9571 18.6209 25.6883 18.5317 25.3919 18.3843C25.0969 18.2223 24.8121 18.0316 24.5375 17.8123C24.2644 17.5784 24.0187 17.3286 23.8004 17.0631C23.5836 16.7828 23.4335 16.5017 23.35 16.2197C23.3434 16.2117 23.3003 16.0853 23.2206 15.8407C23.1489 15.5895 23.0577 15.2734 22.947 14.8926C22.8296 14.5036 22.7051 14.0733 22.5736 13.6016C22.4355 13.1219 22.304 12.6502 22.1792 12.1865C22.0543 11.7228 21.9478 11.298 21.8598 10.9119C21.7731 10.5112 21.7193 10.1914 21.6982 9.95251C21.6781 9.78032 21.6532 9.61877 21.6235 9.46785C21.6019 9.31032 21.5829 9.16415 21.5665 9.02933C21.536 8.81172 21.5073 8.6128 21.4805 8.43256C21.4552 8.23766 21.4471 8.05555 21.4563 7.88622C21.4669 7.70224 21.4987 7.52773 21.5519 7.36271C21.5984 7.18964 21.679 7.0088 21.7936 6.82019C21.9233 6.78106 22.0442 6.75588 22.1563 6.74464C22.2618 6.72535 22.3691 6.72475 22.4784 6.74284L22.6535 6.88207C22.7159 6.92518 22.7731 6.94557 22.8251 6.94326C22.8786 6.92629 22.9174 6.90788 22.9415 6.88804C23.066 6.8262 23.1777 6.78162 23.2765 6.75428C23.3769 6.71229 23.4746 6.65894 23.5697 6.59423C23.6416 6.61606 23.7095 6.6412 23.7733 6.66964C23.8452 6.69147 23.9137 6.70928 23.979 6.72306C24.3317 6.82417 24.6497 6.94037 24.9329 7.07168C25.2161 7.20298 25.4112 7.44038 25.5182 7.78389L25.6394 7.90675C25.726 7.93002 25.7891 7.96579 25.8288 8.01408C25.8684 8.06236 25.9166 8.13738 25.9733 8.23913C26.0181 8.31013 26.0696 8.38917 26.1277 8.47626C26.1872 8.54869 26.2654 8.61924 26.3623 8.68793L26.5262 8.71505C26.7079 8.67361 26.8591 8.60329 26.9798 8.50408C27.1407 8.3718 27.2558 8.21654 27.3251 8.03829C27.3943 7.86004 27.4555 7.6884 27.5086 7.52338C27.5442 7.38625 27.5817 7.2678 27.6211 7.16804C27.6685 7.06166 27.7218 6.97066 27.781 6.89504C27.8177 6.5952 27.8549 6.3287 27.8925 6.09555C27.9315 5.84774 27.9746 5.59662 28.0217 5.3422C28.1196 4.87072 28.1962 4.38976 28.2516 3.89932C28.3003 3.40083 28.2398 2.88426 28.0701 2.3496C28.1123 2.22051 28.1897 2.10967 28.3024 2.01708C28.4151 1.92448 28.5476 1.85603 28.6999 1.81173C28.8457 1.75937 28.998 1.71506 29.157 1.6788C29.1944 1.67505 29.2244 1.67059 29.2471 1.66541C29.2779 1.65362 29.3119 1.64585 29.3493 1.6421C29.4221 1.73062 29.5244 1.78134 29.6564 1.79424C29.7231 1.79336 29.7678 1.79033 29.7905 1.78515C29.8132 1.77997 29.8359 1.77479 29.8586 1.76961C29.956 1.75694 30.0381 1.75016 30.1048 1.74929C30.1795 1.74179 30.2521 1.75629 30.3226 1.79278C30.5736 1.95054 30.8332 2.02034 31.1014 2.00216C31.158 2.10391 31.2348 2.18913 31.3317 2.25781C31.422 2.31844 31.5163 2.37577 31.6146 2.42979C31.6572 2.44876 31.6957 2.47103 31.7302 2.4966C31.7581 2.51413 31.7966 2.5364 31.8458 2.56341L31.5604 2.75753L31.8149 2.99333C31.9514 3.1103 32.065 3.27313 32.1556 3.48181C32.2543 3.68388 32.3151 3.85635 32.3382 3.99922C32.5527 4.22742 32.7194 4.41394 32.8385 4.5588C32.9509 4.69561 33.0487 4.83099 33.1318 4.96493C33.2149 5.09887 33.2827 5.23871 33.335 5.38444C33.3888 5.51552 33.4371 5.66456 33.48 5.83157C34.0149 6.41673 34.4021 7.03557 34.6417 7.68807C34.8894 8.33396 35.0945 8.96089 35.2571 9.56885C35.2792 9.64503 35.2981 9.71718 35.3136 9.78531C35.3292 9.85343 35.3487 9.91825 35.3723 9.97977C35.3036 10.0767 35.2463 10.171 35.2003 10.2627C35.1544 10.3544 35.1157 10.4468 35.0844 10.54C35.0422 10.6691 34.9933 10.7901 34.9379 10.9031C34.8758 11.008 34.7965 11.1002 34.6999 11.1796C34.0822 11.2154 33.4808 10.8938 32.8959 10.215C32.3191 9.52947 31.7438 8.5259 31.1699 7.20425C31.1932 7.11771 31.1677 7.03751 31.0936 6.96365L30.9844 6.83087L30.8538 6.918C30.8136 6.95107 30.7806 6.98486 30.7551 7.01936C30.7295 7.05386 30.7351 7.10992 30.7719 7.18753C30.6665 7.58427 30.5436 8.00889 30.4031 8.46141C30.2641 8.89926 30.1031 9.33497 29.9201 9.76852C29.7304 10.194 29.5129 10.602 29.2675 10.9925C29.0235 11.3682 28.7446 11.6851 28.4308 11.943C27.626 12.6044 26.6811 12.6933 25.5961 12.2098L25.3089 12.0818L25.3469 12.3741C25.3558 12.4342 25.3777 12.5511 25.4125 12.7247C25.4488 12.8837 25.4975 13.0661 25.5588 13.2719C25.6281 13.4711 25.7048 13.671 25.7888 13.8716C25.8808 14.0656 25.9845 14.2164 26.0998 14.3239C26.076 14.4918 26.0621 14.6717 26.0581 14.8638C26.0622 15.0492 26.1036 15.2309 26.1824 15.4088C26.1994 15.4623 26.2285 15.5058 26.2696 15.5394C26.3041 15.565 26.3459 15.5913 26.3951 15.6183C26.4333 15.6813 26.4503 15.7347 26.446 15.7787C26.4417 15.8227 26.4334 15.87 26.421 15.9206C26.4139 15.9939 26.41 16.0712 26.4094 16.1526C26.4023 16.2259 26.4057 16.3039 26.4198 16.3867C26.4434 16.4482 26.4743 16.5105 26.5126 16.5734C26.5442 16.6283 26.5726 16.6792 26.5976 16.726C26.6703 16.8146 26.7079 16.8848 26.7102 16.9369C26.7686 17.172 26.8119 17.3724 26.8401 17.5379C26.8698 17.6889 26.8796 17.8156 26.8695 17.9183C26.8595 18.0209 26.8289 18.1067 26.7778 18.1757C26.7413 18.2462 26.6828 18.3144 26.6023 18.3806Z" fill="black"/>
</svg>
