<svg width="39" height="36" viewBox="0 0 39 36" fill="none" xmlns="http://www.w3.org/2000/svg">
<path d="M20.8956 29.9973C20.5818 30.1641 20.2831 30.3379 19.9995 30.5186C19.7379 30.691 19.4694 30.8786 19.194 31.0813C19.0783 31.1745 18.9585 31.2566 18.8346 31.3277C18.7107 31.3989 18.5799 31.4851 18.4422 31.5865C18.0132 31.6458 17.6034 31.7231 17.2129 31.8182C16.8443 31.9052 16.5169 32.0019 16.2307 32.1084L15.6863 32.1605C15.3894 32.1707 15.1668 32.1784 15.0183 32.1835C14.8617 32.1666 14.7132 32.1717 14.573 32.1988C14.4465 32.1957 14.2912 32.2159 14.1069 32.2594C13.9446 32.2947 13.7012 32.3477 13.3766 32.4183C13.0597 32.7116 12.7252 32.9237 12.373 33.0547C12.1308 33.1448 11.8654 33.2059 11.5767 33.2382C11.2798 33.2484 10.9583 33.1925 10.6123 33.0707C10.2581 32.9268 9.88622 32.7018 9.49669 32.3956C9.09898 32.0674 8.69335 31.6169 8.2798 31.0441C8.15751 30.5132 8.0708 30.0443 8.01965 29.6373C7.9685 29.2304 7.94601 28.9005 7.95218 28.6476L8.10579 28.2522C8.4447 27.9507 8.8673 27.7058 9.37359 27.5175C9.85786 27.3373 10.3598 27.2383 10.8794 27.2205C11.3989 27.2026 11.9226 27.1957 12.4504 27.1999C12.6812 27.2143 12.8489 27.2271 12.9533 27.2383C13.0577 27.2496 13.1361 27.2581 13.1883 27.2637C13.2405 27.2693 13.2996 27.2599 13.3657 27.2353C13.4537 27.2026 13.5968 27.1493 13.7949 27.0756C13.905 27.0347 14.004 26.9979 14.0921 26.9651C14.1939 26.9022 14.2958 26.8392 14.3977 26.7762L14.8062 26.6619C14.993 26.6926 15.1965 26.667 15.4166 26.5852C15.5707 26.5278 15.7166 26.4485 15.8543 26.3472C16.0141 26.2376 16.1738 26.1281 16.3335 26.0186C16.485 25.887 16.6228 25.7857 16.7466 25.7146C16.8705 25.6434 16.9793 25.5654 17.073 25.4804L17.2927 25.0604C17.48 24.8905 17.6083 24.73 17.6774 24.579C17.7685 24.4198 17.8336 24.2578 17.8725 24.093C17.9032 23.9062 17.9229 23.7234 17.9317 23.5448C17.9624 23.3579 18.011 23.1519 18.0776 22.9267C18.1386 22.7536 18.1885 22.5847 18.2274 22.4199C18.2883 22.2469 18.3534 22.0849 18.4225 21.9339L18.2997 21.6037C18.3489 20.6582 18.35 19.7181 18.303 18.7834C18.256 17.8486 18.176 16.9262 18.063 16.016C17.95 15.1059 17.8121 14.23 17.6494 13.3884C17.5087 12.5386 17.3747 11.7741 17.2473 11.0948C17.1813 11.1194 17.1152 11.1439 17.0492 11.1685C16.975 11.1711 16.9158 11.1805 16.8718 11.1969C16.2114 11.4425 15.6762 11.6541 15.2662 11.8317C14.8561 12.0093 14.4832 12.1856 14.1474 12.3607C13.8115 12.5357 13.4619 12.7409 13.0984 12.9764C12.7488 13.1816 12.2972 13.4498 11.7438 13.7809L11.2194 14.0888C10.8748 14.4425 10.5372 14.781 10.2065 15.1045C9.88958 15.3978 9.52202 15.6222 9.10378 15.7778C8.4434 16.0235 7.77282 15.9722 7.09204 15.624C6.47112 15.5042 6.02119 15.1704 5.74227 14.6226C5.55851 14.4654 5.44489 14.2947 5.4014 14.1104C5.19871 13.835 5.04133 13.5803 4.92925 13.3464C4.83099 13.0822 4.74093 12.8401 4.65905 12.62L4.48327 12.0464L4.97855 11.8621C5.0615 11.6809 5.1127 11.5491 5.13216 11.4667C5.17364 11.3761 5.189 11.2827 5.17826 11.1864L5.1545 10.8194L5.4724 10.6636C5.9101 10.4256 6.35471 10.1725 6.80623 9.90431C7.25776 9.63612 7.71619 9.35284 8.18154 9.05445C8.65507 8.77807 9.05566 8.54136 9.38329 8.34432C9.73294 8.13908 10.0688 7.96405 10.3908 7.81922C10.7046 7.65237 11.0376 7.50344 11.3898 7.37244C11.7338 7.21941 12.1369 7.05693 12.5992 6.88498C12.7753 6.81948 12.9335 6.77317 13.0737 6.74605C13.2278 6.68873 13.3819 6.63142 13.536 6.5741C13.5831 6.43129 13.6466 6.3325 13.7265 6.27773C13.8063 6.22297 13.8683 6.1874 13.9123 6.17102C14.0746 6.13572 14.1928 6.11679 14.267 6.11424C14.3633 6.1035 14.4375 6.10095 14.4897 6.10658C15.189 5.69612 15.8427 5.36524 16.4509 5.11396C17.0729 4.83249 17.637 4.59759 18.1433 4.40926C18.3854 4.31919 18.6276 4.22912 18.8697 4.13905C19.1119 4.04899 19.3471 3.97402 19.5754 3.91415L20.8301 3.44743L21.7216 3.11582C21.8235 3.05286 21.9184 3.00501 22.0065 2.97226C22.1166 2.93132 22.2266 2.89038 22.3367 2.84944C22.5568 2.76756 22.7219 2.70615 22.832 2.66521C22.964 2.61608 23.0782 2.58615 23.1744 2.57541C23.2625 2.54265 23.3546 2.52091 23.4509 2.51017C23.5389 2.47742 23.6641 2.44339 23.8264 2.40808C24.2251 2.33492 24.5868 2.26304 24.9113 2.19243C25.2359 2.12183 25.5523 2.02921 25.8604 1.91457L26.4755 1.6482L26.722 2.00757L27.1788 2.32628C27.294 2.43379 27.427 2.52211 27.578 2.59123C27.729 2.66035 27.891 2.72538 28.0641 2.78631C28.4183 2.93019 28.7861 3.14421 29.1674 3.42835C29.5626 3.68229 29.854 4.16274 30.0418 4.86969L29.892 5.37645C29.8204 5.45323 29.7528 5.54102 29.6893 5.6398C29.6478 5.73041 29.5994 5.83611 29.5441 5.95691L29.3245 6.3769C29.0465 6.50536 28.8126 6.61744 28.6226 6.71314C28.4245 6.78683 28.2044 6.86871 27.9623 6.95878C27.566 7.10617 27.1547 7.24664 26.7283 7.3802C26.3239 7.50557 25.8975 7.63913 25.449 7.78088C25.1987 7.84894 25.0075 7.90753 24.8754 7.95666C24.7433 8.00579 24.6223 8.05082 24.5122 8.09176C24.4021 8.1327 24.2742 8.19284 24.1283 8.27216C23.9962 8.32129 23.8201 8.3868 23.6 8.46868C23.3798 8.55056 23.2148 8.61197 23.1047 8.65291C23.0166 8.68566 22.8887 8.74579 22.7207 8.83331C22.9387 9.55409 23.08 10.2032 23.1444 10.7806C23.2227 11.3278 23.2802 11.9204 23.317 12.5582C23.7012 14.871 23.9413 17.0996 24.0373 19.2439C24.1553 21.3801 24.1267 23.3578 23.9514 25.1771C23.5254 26.1875 23.1038 27.1086 22.6865 27.9404C22.261 28.7502 21.6971 29.4235 20.9947 29.9604L20.8956 29.9973ZM36.3296 20.46C36.4391 20.6197 36.5336 20.7725 36.6129 20.9184C36.6922 21.0643 36.7866 21.2171 36.8962 21.3768C36.89 21.6297 36.8948 21.8785 36.9107 22.1232C36.9183 22.3459 36.926 22.5685 36.9337 22.7912C36.9249 22.9699 36.9178 23.0853 36.9121 23.1375C36.9065 23.1897 36.9078 23.2268 36.9159 23.2488C36.9241 23.2709 36.9364 23.3039 36.9528 23.3479C36.983 23.3617 37.0268 23.4457 37.0841 23.5998L37.0994 24.0451C37.0466 24.2401 36.9596 24.4103 36.8383 24.5557C36.7169 24.7011 36.5915 24.8354 36.462 24.9588C36.4343 25.0192 36.3806 25.0768 36.3007 25.1315C36.229 25.2083 36.1794 25.2769 36.1517 25.3373L36.2 25.7704L35.7954 25.9961C35.4539 26.2233 35.1511 26.3861 34.887 26.4843L34.4907 26.6317C34.1365 26.4878 33.8578 26.3785 33.6546 26.3038C33.4514 26.229 33.2412 26.1693 33.0242 26.1248C32.6894 25.8985 32.4865 25.7234 32.4153 25.5995C32.336 25.4536 32.2498 25.3228 32.1566 25.2071C32.0062 24.9373 31.8815 24.7707 31.7827 24.7072L31.1485 24.4169L31.4342 23.9723L30.8376 23.4801C31.0281 23.1837 31.173 22.9669 31.2723 22.8298C31.3716 22.6926 31.4489 22.5636 31.5042 22.4428C31.5514 22.3 31.6013 22.1311 31.654 21.936C31.7068 21.741 31.7887 21.4224 31.8998 20.9801L32.0373 20.4403L32.5526 20.5118C32.6652 20.5451 32.8768 20.5415 33.1876 20.5011C33.5121 20.4305 33.7926 20.3762 34.0291 20.3384C34.4443 20.3093 34.8293 20.2663 35.184 20.2095C35.5306 20.1307 35.8357 20.1425 36.0993 20.2449L36.3296 20.46Z" fill="black"/>
</svg>
