<svg width="35" height="39" viewBox="0 0 35 39" fill="none" xmlns="http://www.w3.org/2000/svg">
<path d="M23.2422 13.6992V19.125H26.6758C27.6055 19.125 28.3125 18.8789 28.7969 18.3867C29.2891 17.8945 29.5352 17.2422 29.5352 16.4297C29.5352 15.6094 29.2891 14.9492 28.7969 14.4492C28.3047 13.9492 27.5977 13.6992 26.6758 13.6992H23.2422ZM26.6758 21.1758H23.2422V27H20.6758V11.6484H26.6758C28.3633 11.6484 29.6875 12.082 30.6484 12.9492C31.6172 13.8086 32.1016 14.9648 32.1016 16.418C32.1016 17.8711 31.6211 19.0273 30.6602 19.8867C29.6992 20.7461 28.3711 21.1758 26.6758 21.1758Z" fill="white"/>
<path d="M23.2422 13.6992V13.1982H22.7412V13.6992H23.2422ZM23.2422 19.125H22.7412V19.626H23.2422V19.125ZM28.7969 18.3867L28.4426 18.0324L28.4398 18.0353L28.7969 18.3867ZM23.2422 21.1758V20.6747H22.7412V21.1758H23.2422ZM23.2422 27V27.501H23.7432V27H23.2422ZM20.6758 27H20.1747V27.501H20.6758V27ZM20.6758 11.6484V11.1474H20.1747V11.6484H20.6758ZM30.6484 12.9492L30.3127 13.3212L30.3159 13.324L30.6484 12.9492ZM22.7412 13.6992V19.125H23.7432V13.6992H22.7412ZM23.2422 19.626H26.6758V18.624H23.2422V19.626ZM26.6758 19.626C27.6918 19.626 28.5464 19.3556 29.154 18.7382L28.4398 18.0353C28.0786 18.4023 27.5192 18.624 26.6758 18.624V19.626ZM29.1512 18.741C29.753 18.1391 30.0362 17.3511 30.0362 16.4297H29.0341C29.0341 17.1333 28.8251 17.6499 28.4426 18.0324L29.1512 18.741ZM30.0362 16.4297C30.0362 15.5018 29.7539 14.7072 29.1539 14.0977L28.4398 14.8007C28.8242 15.1912 29.0341 15.7169 29.0341 16.4297H30.0362ZM29.1539 14.0977C28.5407 13.4748 27.688 13.1982 26.6758 13.1982V14.2003C27.5073 14.2003 28.0687 14.4237 28.4398 14.8007L29.1539 14.0977ZM26.6758 13.1982H23.2422V14.2003H26.6758V13.1982ZM26.6758 20.6747H23.2422V21.6768H26.6758V20.6747ZM22.7412 21.1758V27H23.7432V21.1758H22.7412ZM23.2422 26.499H20.6758V27.501H23.2422V26.499ZM21.1768 27V11.6484H20.1747V27H21.1768ZM20.6758 12.1495H26.6758V11.1474H20.6758V12.1495ZM26.6758 12.1495C28.2779 12.1495 29.469 12.5598 30.3128 13.3212L30.9841 12.5773C29.906 11.6043 28.4487 11.1474 26.6758 11.1474V12.1495ZM30.3159 13.324C31.1637 14.0761 31.6005 15.0886 31.6005 16.418H32.6026C32.6026 14.841 32.0706 13.5411 30.9809 12.5744L30.3159 13.324ZM31.6005 16.418C31.6005 17.7487 31.1667 18.7616 30.3262 19.5132L30.9942 20.2602C32.0755 19.2931 32.6026 17.9935 32.6026 16.418H31.6005ZM30.3262 19.5132C29.4829 20.2674 28.2875 20.6747 26.6758 20.6747V21.6768C28.4547 21.6768 29.9156 21.2248 30.9942 20.2602L30.3262 19.5132Z" fill="black"/>
<path d="M16.5645 28.1702C16.3564 28.2825 16.1584 28.3994 15.9704 28.5207C15.7971 28.6365 15.6192 28.7624 15.4368 28.8984C15.3603 28.9609 15.2809 29.016 15.1988 29.0638C15.1166 29.1117 15.03 29.1696 14.9388 29.2376C14.6536 29.2788 14.3813 29.3319 14.1219 29.3968C13.877 29.4562 13.6596 29.5219 13.4697 29.5939L13.1077 29.6308C12.9103 29.6388 12.7621 29.6448 12.6634 29.6488C12.5591 29.6382 12.4604 29.6422 12.3672 29.6608C12.2831 29.6593 12.1798 29.6734 12.0574 29.7031C11.9495 29.7272 11.7878 29.7635 11.5722 29.8118C11.3626 30.0082 11.1409 30.1507 10.9071 30.2393C10.7464 30.3002 10.5701 30.342 10.3781 30.3646C10.1806 30.3726 9.96655 30.3368 9.73584 30.2572C9.4996 30.1629 9.25128 30.0147 8.99088 29.8126C8.72494 29.596 8.45323 29.2979 8.17575 28.9185C8.09221 28.5658 8.03259 28.2542 7.99689 27.9837C7.96119 27.7132 7.94488 27.4938 7.94794 27.3255L8.04851 27.0618C8.27274 26.8599 8.55287 26.6952 8.88892 26.5678C9.21036 26.446 9.54387 26.3781 9.88946 26.3641C10.235 26.35 10.5834 26.3433 10.9345 26.3439C11.0882 26.3525 11.1998 26.3604 11.2693 26.3674C11.3388 26.3745 11.3909 26.3798 11.4257 26.3833C11.4605 26.3869 11.4998 26.3803 11.5436 26.3637C11.602 26.3416 11.697 26.3056 11.8285 26.2557C11.9016 26.228 11.9673 26.2031 12.0257 26.181C12.0933 26.1387 12.1608 26.0964 12.2283 26.0541L12.4996 25.9763C12.624 25.996 12.7593 25.9781 12.9054 25.9228C13.0077 25.884 13.1044 25.8306 13.1956 25.7626C13.3014 25.6891 13.4072 25.6156 13.513 25.5421C13.6133 25.4539 13.7045 25.3859 13.7866 25.3381C13.8688 25.2903 13.9408 25.2379 14.0028 25.181L14.1472 24.9007C14.2711 24.7868 14.3558 24.6796 14.4012 24.5788C14.4611 24.4725 14.5037 24.3645 14.529 24.2547C14.5486 24.1303 14.561 24.0086 14.5661 23.8897C14.5858 23.7653 14.6173 23.628 14.6606 23.4779C14.7005 23.3625 14.733 23.25 14.7582 23.1401C14.798 23.0248 14.8406 22.9167 14.886 22.816L14.8029 22.5968C14.8318 21.9676 14.8287 21.3422 14.7936 20.7205C14.7585 20.0989 14.7014 19.4855 14.6225 18.8805C14.5436 18.2754 14.4482 17.6933 14.3365 17.1341C14.2394 16.5693 14.1471 16.0613 14.0596 15.6099C14.0158 15.6265 13.9719 15.6431 13.9281 15.6597C13.8787 15.6617 13.8394 15.6682 13.8102 15.6793C13.3719 15.8455 13.0167 15.9884 12.7446 16.1083C12.4726 16.2281 12.2252 16.3469 12.0025 16.4647C11.7798 16.5826 11.548 16.7206 11.3072 16.8787C11.0754 17.0167 10.7761 17.1969 10.4093 17.4195L10.0617 17.6265C9.83391 17.8632 9.61068 18.0898 9.39199 18.3064C9.18237 18.5028 8.93876 18.6536 8.66116 18.7588C8.22284 18.925 7.7765 18.8936 7.32216 18.6648C6.90858 18.5876 6.60789 18.3674 6.42007 18.0041C6.29718 17.9003 6.22089 17.7872 6.19119 17.6648C6.05522 17.4824 5.94947 17.3136 5.87394 17.1584C5.80749 16.9831 5.74658 16.8224 5.6912 16.6763L5.5719 16.2954L5.90064 16.1708C5.95508 16.0499 5.9886 15.962 6.00121 15.9071C6.02843 15.8466 6.03827 15.7844 6.03073 15.7204L6.01341 15.4764L6.22426 15.3714C6.51447 15.2113 6.80922 15.0411 7.10851 14.8608C7.40779 14.6805 7.71161 14.4902 8.01997 14.2897C8.33386 14.1039 8.59939 13.9448 8.81655 13.8124C9.04832 13.6744 9.27101 13.5566 9.48464 13.4589C9.69272 13.3466 9.91365 13.2461 10.1474 13.1575C10.3757 13.0543 10.6432 12.9446 10.95 12.8283C11.0669 12.784 11.1719 12.7525 11.2651 12.7339C11.3674 12.6951 11.4697 12.6564 11.572 12.6176C11.6027 12.5224 11.6445 12.4564 11.6975 12.4197C11.7504 12.3829 11.7914 12.359 11.8206 12.3479C11.9285 12.3237 12.007 12.3107 12.0564 12.3087C12.1204 12.3011 12.1698 12.2991 12.2045 12.3027C12.6681 12.0267 13.1016 11.8039 13.5052 11.6342C13.9178 11.4444 14.2922 11.2858 14.6282 11.1584C14.7889 11.0975 14.9496 11.0366 15.1104 10.9757C15.2711 10.9148 15.4273 10.8639 15.5789 10.8232L16.4117 10.5075L17.0034 10.2832C17.071 10.2409 17.1339 10.2087 17.1924 10.1866C17.2654 10.1589 17.3385 10.1312 17.4115 10.1035C17.5577 10.0481 17.6672 10.0066 17.7403 9.97889C17.8279 9.94566 17.9038 9.92527 17.9678 9.91773C18.0262 9.89558 18.0874 9.88074 18.1514 9.8732C18.2098 9.85105 18.293 9.82789 18.4008 9.80374C18.6658 9.75343 18.9061 9.70412 19.1217 9.65581C19.3373 9.6075 19.5474 9.54458 19.752 9.46705L20.1601 9.28731L20.3255 9.52538L20.6307 9.73553C20.7078 9.80658 20.7967 9.86479 20.8974 9.91016C20.9982 9.95552 21.1062 9.99812 21.2216 10.0379C21.4578 10.1322 21.7034 10.2731 21.9582 10.4605C22.2222 10.6279 22.4181 10.9463 22.5459 11.4158L22.4483 11.7536C22.401 11.805 22.3564 11.8636 22.3145 11.9296C22.2873 11.9901 22.2556 12.0606 22.2193 12.1412L22.0749 12.4215C21.8905 12.5081 21.7353 12.5836 21.6093 12.6481C21.4778 12.6979 21.3317 12.7533 21.171 12.8142C20.908 12.9139 20.6349 13.009 20.3518 13.0996C20.0833 13.1847 19.8001 13.2753 19.5024 13.3715C19.3361 13.4178 19.2092 13.4575 19.1215 13.4908C19.0338 13.524 18.9535 13.5544 18.8804 13.5821C18.8074 13.6098 18.7225 13.6504 18.6257 13.7037C18.5381 13.737 18.4212 13.7813 18.2751 13.8366C18.129 13.892 18.0194 13.9336 17.9463 13.9612C17.8879 13.9834 17.803 14.0239 17.6917 14.0828C17.8396 14.5615 17.9363 14.9927 17.9815 15.3766C18.0358 15.7403 18.0765 16.1343 18.1036 16.5585C18.3687 18.0955 18.5376 19.5772 18.6103 21.0034C18.6976 22.424 18.6867 23.7399 18.5776 24.9509C18.2983 25.6249 18.0216 26.2394 17.7474 26.7945C17.4677 27.335 17.0953 27.7852 16.6302 28.1453L16.5645 28.1702Z" fill="black"/>
</svg>
