<?xml version="1.0" standalone="no"?>
<!DOCTYPE svg PUBLIC "-//W3C//DTD SVG 20010904//EN"
 "http://www.w3.org/TR/2001/REC-SVG-20010904/DTD/svg10.dtd">
<svg version="1.0" xmlns="http://www.w3.org/2000/svg"
 width="624.000000pt" height="624.000000pt" viewBox="0 0 624.000000 624.000000"
 preserveAspectRatio="xMidYMid meet">
<metadata>
Created by potrace 1.14, written by Peter Selinger 2001-2017
</metadata>
<g transform="translate(0.000000,624.000000) scale(0.100000,-0.100000)"
fill="#000000" stroke="none">
<path d="M4224 5731 c-21 -20 -191 -72 -330 -101 -163 -35 -177 -38 -184 -40
-3 -1 -9 -3 -15 -4 -5 -1 -17 -5 -25 -8 -8 -3 -37 -14 -65 -23 -27 -9 -79 -30
-115 -45 -36 -15 -117 -47 -180 -70 -63 -23 -124 -46 -135 -50 -20 -9 -61 -22
-80 -26 -14 -3 -256 -93 -280 -104 -11 -5 -49 -21 -85 -36 -61 -25 -136 -58
-240 -108 -25 -11 -46 -24 -48 -28 -2 -5 -12 -8 -22 -8 -10 0 -21 -4 -24 -9
-10 -15 -81 -48 -106 -49 -54 -2 -104 -26 -118 -56 -7 -15 -31 -28 -83 -44
-41 -13 -83 -27 -94 -32 -11 -4 -67 -27 -125 -50 -131 -52 -295 -131 -379
-181 -34 -22 -64 -39 -66 -39 -1 0 -49 -29 -106 -64 -181 -113 -444 -265 -487
-282 -1 -1 -4 -25 -6 -55 -6 -83 -22 -116 -62 -129 -18 -6 -36 -15 -38 -19 -6
-10 19 -108 32 -124 5 -7 12 -25 16 -42 4 -16 26 -61 49 -100 132 -221 166
-256 294 -302 122 -44 150 -51 208 -51 125 0 226 53 369 193 64 62 134 119
178 145 40 24 85 51 100 61 15 11 29 19 32 19 3 0 47 26 98 58 114 71 241 136
373 192 125 53 264 102 278 97 6 -2 12 -13 13 -24 2 -12 11 -62 20 -110 8 -48
18 -108 20 -132 3 -24 7 -47 9 -51 2 -3 7 -29 11 -56 3 -27 8 -52 10 -55 4 -7
21 -113 29 -178 2 -19 7 -50 10 -70 8 -46 13 -83 20 -151 3 -30 7 -66 10 -80
3 -14 7 -65 11 -115 3 -49 7 -115 10 -145 2 -30 5 -161 5 -291 0 -129 4 -241
9 -249 5 -8 3 -27 -6 -48 -23 -55 -63 -212 -69 -272 -7 -64 -36 -134 -69 -170
-13 -14 -35 -43 -48 -65 -14 -22 -52 -58 -84 -80 -32 -22 -69 -48 -81 -59 -51
-43 -128 -79 -178 -81 -53 -3 -93 -14 -130 -36 -64 -38 -225 -79 -225 -58 0 9
-377 5 -400 -4 -8 -3 -30 -8 -49 -11 -51 -7 -149 -46 -211 -83 -74 -44 -84
-53 -104 -90 -20 -39 -16 -145 10 -277 2 -11 9 -48 15 -81 9 -50 20 -72 66
-129 178 -220 365 -312 551 -272 41 9 133 55 174 87 58 46 153 66 358 73 63 3
122 7 130 9 8 2 47 13 85 24 71 21 198 50 247 56 28 3 86 38 208 125 41 30 91
63 110 73 116 64 149 86 205 142 67 66 175 210 175 233 0 8 5 14 10 14 6 0 10
5 10 10 0 6 22 56 49 113 111 233 141 305 146 351 25 219 25 701 1 1096 -11
175 -15 218 -32 355 -3 22 -7 58 -9 80 -5 59 -30 241 -39 295 -3 14 -7 42 -10
63 -3 20 -8 52 -11 70 -3 17 -7 64 -10 102 -3 39 -7 86 -9 105 -13 110 -18
156 -22 174 -3 12 -6 30 -8 41 -2 11 -10 49 -19 85 -34 138 -39 122 55 155 46
15 89 32 96 38 6 5 12 6 12 3 0 -4 21 4 48 17 26 14 67 32 92 40 49 17 249 79
265 83 50 10 344 116 375 135 8 5 31 16 50 24 27 12 41 28 59 68 13 28 33 66
46 82 29 40 44 104 32 135 -29 77 -55 128 -77 154 -37 43 -158 119 -247 156
-98 40 -188 104 -224 157 -9 13 -20 19 -25 14z"/>
<path d="M5678 2775 c-4 -4 -116 -18 -228 -30 -25 -2 -65 -9 -89 -15 -24 -6
-50 -9 -57 -6 -8 3 -15 2 -18 -2 -4 -7 -29 -7 -126 0 l-35 3 -31 -120 c-50
-194 -52 -199 -86 -251 -18 -27 -35 -51 -39 -54 -25 -20 -32 -80 -9 -80 5 0
22 -14 39 -31 l31 -31 -20 -25 c-11 -14 -20 -30 -20 -34 0 -5 24 -20 53 -34
46 -21 61 -35 109 -108 56 -84 129 -147 169 -147 10 0 31 -5 46 -11 15 -6 39
-16 53 -21 14 -5 37 -16 51 -22 14 -7 38 -12 53 -10 28 3 129 49 219 101 46
26 48 30 45 66 -2 33 4 44 52 98 30 34 63 74 74 90 23 37 28 111 9 147 -11 19
-15 69 -17 177 l-2 150 -48 80 c-26 44 -58 87 -70 96 -18 14 -100 32 -108 24z"/>
</g>
</svg>
